<svg xmlns="http://www.w3.org/2000/svg" xmlns:xlink="http://www.w3.org/1999/xlink" viewBox="0 0 978 336.15"><defs><style>.cls-1{fill:#808083;}.cls-2{fill:url(#linear-gradient);}.cls-3{fill:url(#linear-gradient-2);}.cls-4{fill:url(#linear-gradient-3);}.cls-5{fill:url(#linear-gradient-4);}.cls-6{fill:url(#linear-gradient-5);}</style><linearGradient id="linear-gradient" x1="62.24" y1="134.42" x2="255.39" y2="327.57" gradientTransform="translate(0 -3.61)" gradientUnits="userSpaceOnUse"><stop offset="0" stop-color="#7bc263"/><stop offset="1" stop-color="#28b5d8"/></linearGradient><linearGradient id="linear-gradient-2" x1="2.08" y1="194.58" x2="195.23" y2="387.73" xlink:href="#linear-gradient"/><linearGradient id="linear-gradient-3" x1="103.65" y1="93.01" x2="296.79" y2="286.16" xlink:href="#linear-gradient"/><linearGradient id="linear-gradient-4" x1="57.08" y1="139.58" x2="250.23" y2="332.72" xlink:href="#linear-gradient"/><linearGradient id="linear-gradient-5" x1="48.01" y1="94.87" x2="255.69" y2="302.54" xlink:href="#linear-gradient"/></defs><g id="Layer_2" data-name="Layer 2"><g id="Layer_1-2" data-name="Layer 1"><path class="cls-1" d="M375.76,47v62.63h-9.58V47Z"/><path class="cls-1" d="M423.18,77H449v.47c0,10.71-3.19,19.44-9.3,25.36-6.48,6.29-14.18,8-21.31,8-9.11,0-15.59-2.63-21.32-8.55a33.53,33.53,0,0,1-9.29-23.66c0-9.77,3.94-18.22,9.1-23.38a33.37,33.37,0,0,1,23.57-9.39,33.9,33.9,0,0,1,16.34,3.94,28.35,28.35,0,0,1,10.14,9.39l-7.6,5.35a25.7,25.7,0,0,0-7.7-7.13,21.07,21.07,0,0,0-11.08-2.72c-8.17,0-13.43,3.37-16.53,6.47-4.13,4.14-6.67,10.8-6.67,17.56a25.19,25.19,0,0,0,6.48,17c4.32,4.6,9.67,6.29,15.68,6.29a18.78,18.78,0,0,0,14-5.54,16.73,16.73,0,0,0,5.26-10.61H423.18Z"/><path class="cls-1" d="M472.19,47c7.6,0,12.49.93,16.52,3.66,6.86,4.6,7.42,12,7.42,14.74,0,9-5.54,15.59-13.9,17.47l19.54,26.76H490.22L472.28,84h-1.69v25.64H461V47Zm-1.6,28.73h3c2.63,0,13.33-.28,13.33-10.24,0-8.82-8.36-9.67-13.05-9.67h-3.29Z"/><path class="cls-1" d="M545.71,56h-25V71.84H545v9H520.73v19.72h25v9H511.15V47h34.56Z"/><path class="cls-1" d="M580.82,47V87.52c0,5-.18,10-2.34,14.27a15.63,15.63,0,0,1-14.75,9,19.86,19.86,0,0,1-11.08-3.19l4.7-8.08a9.61,9.61,0,0,0,6.57,2.25,6.23,6.23,0,0,0,6.29-4.22c.57-1.41,1-3.66,1-10V47Z"/><path class="cls-1" d="M628,94.47H601.2l-6.86,15.12H584l31.18-66.3,29.67,66.3H634.53Zm-3.85-9-9.3-21.22-9.67,21.22Z"/><path class="cls-1" d="M380,138.13c3.85,0,9.21.37,13.71,3.38a18.12,18.12,0,0,1,7.8,15.21,17.53,17.53,0,0,1-6.11,13.71c-5,4.23-10.7,4.88-15.3,4.88h-4.32v25.45h-9.58V138.13Zm-4.22,28.36h4.32c8.26,0,12.2-4,12.2-9.86,0-3.48-1.4-9.67-12.3-9.67h-4.22Z"/><path class="cls-1" d="M422.42,138.13c7.61,0,12.49.94,16.53,3.66,6.85,4.6,7.42,12,7.42,14.74,0,9-5.54,15.59-13.9,17.47L452,200.76H440.45l-17.93-25.63h-1.69v25.63h-9.58V138.13Zm-1.59,28.73h3c2.63,0,13.34-.28,13.34-10.23,0-8.83-8.36-9.67-13.06-9.67h-3.28Z"/><path class="cls-1" d="M495.94,147.14H471V163h24.22v9H471v19.72h25v9H461.39V138.13h34.55Z"/><path class="cls-1" d="M535.38,152a9.91,9.91,0,0,0-2.82-3.95,10,10,0,0,0-6.76-2.25c-5.82,0-8.82,3.47-8.82,7.51,0,1.88.65,5.17,6.76,7.61l6.29,2.53c11.55,4.7,14.74,11.27,14.74,18.41,0,11.92-8.45,20.09-20.19,20.09-7.23,0-11.55-2.72-14.74-6.29a20.32,20.32,0,0,1-5.26-12.21l9.48-2.06a13.53,13.53,0,0,0,2.63,8,9.91,9.91,0,0,0,8.17,3.76c5.83,0,10.33-4.23,10.33-10.52s-4.88-9-9-10.71l-6-2.53c-5.17-2.16-12.77-6.48-12.77-15.87,0-8.45,6.57-16.53,18.31-16.53,6.76,0,10.61,2.54,12.58,4.23a21.38,21.38,0,0,1,4.79,6.29Z"/><path class="cls-1" d="M566.27,138.13c8.08,0,13.15,1,17.28,4.88,3.38,3.19,5,7.23,5,12.4a13.7,13.7,0,0,1-1.87,7.42,10.32,10.32,0,0,1-4.7,4.31,17.32,17.32,0,0,1,8.08,4.51c3.38,3.57,4.13,7.89,4.13,11.74,0,4.51-1.13,8.08-4.13,11.27-5,5.26-12.77,6.1-17.56,6.1H556.79V138.13Zm.1,27h2.91c2.34,0,5.54-.28,7.79-2.44s2.44-5,2.44-7.14a7.74,7.74,0,0,0-2.25-6c-2.16-2.06-4.88-2.35-7.61-2.35h-3.28Zm0,26.67h5.82c2.72,0,7-.47,9.48-2.45a9,9,0,0,0,3.1-6.94,9.39,9.39,0,0,0-2.54-6.58c-2.63-2.53-6.47-2.81-9.85-2.81h-6Z"/><path class="cls-1" d="M615.75,138.13v62.63h-9.58V138.13Z"/><path class="cls-1" d="M648.14,147.14v53.62h-9.57V147.14H624.2v-9h38.31v9Z"/><path class="cls-1" d="M705.52,147.14h-25V163h24.23v9H680.54v19.72h25v9H671V138.13h34.56Z"/><path class="cls-1" d="M729.08,138.13c7.61,0,12.49.94,16.53,3.66,6.85,4.6,7.42,12,7.42,14.74,0,9-5.54,15.59-13.9,17.47l19.53,26.76H747.11l-17.93-25.63h-1.69v25.63h-9.58V138.13Zm-1.59,28.73h3c2.63,0,13.34-.28,13.34-10.23,0-8.83-8.36-9.67-13.06-9.67h-3.28Z"/><path class="cls-1" d="M777.63,138.13v62.63h-9.58V138.13Z"/><path class="cls-1" d="M829.46,185.64H802.7l-6.86,15.12H785.51l31.18-66.29,29.67,66.29H836Zm-3.85-9-9.3-21.22-9.67,21.22Z"/><path class="cls-1" d="M854.24,200.76V133.9l45.45,47.61V138.13h9.58v66.48L863.82,157v43.76Z"/><path class="cls-1" d="M961.1,185.64H934.33l-6.85,15.12H917.15l31.18-66.29L978,200.76H967.67Zm-3.85-9L948,155.41l-9.67,21.22Z"/><path class="cls-1" d="M379.33,229.3c8.73,0,16.33.94,23.28,6.1,7.61,5.73,12,14.84,12,25.26s-4.32,19.44-12.58,25.26c-7.32,5.17-14.18,6-22.91,6h-13V229.3Zm-3.57,53.62h4.13c4.69,0,11.17-.38,16.62-4.42a22.06,22.06,0,0,0,8.54-17.84c0-8.26-3.94-14.74-8.45-18-5.44-3.95-12.11-4.32-16.71-4.32h-4.13Z"/><path class="cls-1" d="M457.82,276.81H431.06l-6.85,15.12H413.88l31.17-66.29,29.68,66.29H464.4Zm-3.85-9-9.29-21.22L435,267.8Z"/><path class="cls-1" d="M502.61,291.93l13.14-67.32,21.79,48.64,22-48.64,11.83,67.32h-9.76l-6.39-37.75L537,294.84l-18-40.75-6.58,37.84Z"/><path class="cls-1" d="M642.89,260.66c0,18.41-13.8,32.49-32.58,32.49s-32.59-14.08-32.59-32.49,13.81-32.49,32.59-32.49S642.89,242.26,642.89,260.66Zm-9.58,0c0-13.89-9.58-23.66-23-23.66s-23,9.77-23,23.66,9.58,23.67,23,23.67S633.31,274.56,633.31,260.66Z"/><path class="cls-1" d="M717.07,260.66c0,18.41-13.81,32.49-32.59,32.49s-32.58-14.08-32.58-32.49,13.8-32.49,32.58-32.49S717.07,242.26,717.07,260.66Zm-9.58,0c0-13.89-9.58-23.66-23-23.66s-23,9.77-23,23.66,9.58,23.67,23,23.67S707.49,274.56,707.49,260.66Z"/><path class="cls-1" d="M775.47,244c-7-6.29-13.43-6.95-17-6.95-13.61,0-22.81,10.05-22.81,23.85,0,13.24,9.57,23.48,22.91,23.48,7.51,0,13.33-3.85,16.9-7.23v11.36a34.23,34.23,0,0,1-17.18,4.69,31.38,31.38,0,0,1-22.17-8.64c-7.32-6.85-10-14.83-10-23.66,0-11.55,4.79-19.53,10-24.51,6.48-6.1,14-8.17,22.64-8.17a29.81,29.81,0,0,1,16.71,4.51Z"/><path class="cls-1" d="M825,276.81H798.28l-6.85,15.12H781.1l31.17-66.29L842,291.93H831.62Zm-3.84-9-9.3-21.22-9.67,21.22Z"/><path class="cls-2" d="M274.09,196H103.55V318.73l48.53,17.42,142.13-51A288,288,0,0,0,286.64,235,283,283,0,0,0,274.09,196Z"/><path class="cls-3" d="M10,285.14l83.47,30V196H30.11A292.91,292.91,0,0,0,10,285.14Z"/><path class="cls-4" d="M103.55,185.93H269.78A293.42,293.42,0,0,0,152.06,54a293.67,293.67,0,0,0-48.51,35.91c0,.19,0,.4,0,.58,1.2,16.35,0,33.23,0,49.62Z"/><path class="cls-5" d="M34.34,185.93h59.1V99.62a285.48,285.48,0,0,0-59.1,86.31Z"/><path class="cls-6" d="M304.17,250.46q-1.65-9.5-3.92-18.75c-2.6-10.71-15.37-46.41-15.37-46.41l-2.3-5.11A309.17,309.17,0,0,0,159.2,42l-7.14-4.23L144.92,42A308,308,0,0,0,94.09,79.6L83.51,89.73a298.9,298.9,0,0,0-62,90.52L13.65,200A304.81,304.81,0,0,0,0,251.1,317.29,317.29,0,0,1,152.06,0c71.47,43.8,123.79,114.54,143.81,196.27A306.52,306.52,0,0,1,304.17,250.46Z"/></g></g></svg>